<svg xmlns="http://www.w3.org/2000/svg" version="1.1" width="1024" height="680">
<rect x="0" y="0" width="1024" height="680" fill="#66726d" />
<g transform="scale(4.000000) translate(0.5 0.5)">
<polygon fill="#e4f1ff" fill-opacity="0.501961" points="271,107 7,185 -16,86" />
<polygon fill="#000e00" fill-opacity="0.501961" points="271,91 249,-16 -16,49" />
<polygon fill="#1b342e" fill-opacity="0.501961" points="110,-16 -16,27 30,109" />
<polygon fill="#cad6e6" fill-opacity="0.501961" points="117,185 120,88 20,105" />
<polygon fill="#222912" fill-opacity="0.501961" points="250,8 120,-16 242,118" />
<polygon fill="#50574e" fill-opacity="0.501961" points="23,147 94,148 27,172" />
<polygon fill="#b3b8c4" fill-opacity="0.501961" points="220,83 265,145 141,127" />
<polygon fill="#464014" fill-opacity="0.501961" points="236,185 121,160 271,149" />
<polygon fill="#aab0b7" fill-opacity="0.501961" points="27,183 145,52 116,178" />
<polygon fill="#cdd2dd" fill-opacity="0.501961" points="192,63 178,126 135,129" />
<polygon fill="#f1ffff" fill-opacity="0.501961" points="36,5 -16,4 32,-16" />
<polygon fill="#0a1c25" fill-opacity="0.501961" points="37,63 -16,27 -3,99" />
<polygon fill="#3a513b" fill-opacity="0.501961" points="111,90 144,5 -1,14" />
<polygon fill="#504a5d" fill-opacity="0.501961" points="224,55 271,61 227,119" />
<polygon fill="#767c77" fill-opacity="0.501961" points="115,129 193,131 123,169" />
<polygon fill="#00000f" fill-opacity="0.501961" points="186,83 194,109 200,78" />
<polygon fill="#545359" fill-opacity="0.501961" points="202,64 140,67 117,115" />
<polygon fill="#dae5f2" fill-opacity="0.501961" points="119,93 111,126 -4,117" />
<polygon fill="#d4e3f3" fill-opacity="0.501961" points="132,124 175,118 152,89" />
<polygon fill="#596479" fill-opacity="0.501961" points="31,138 46,75 26,70" />
<polygon fill="#a79ca6" fill-opacity="0.501961" points="81,96 44,94 90,65" />
<polygon fill="#23351c" fill-opacity="0.501961" points="135,-5 180,-3 164,102" />
<polygon fill="#c0d1e1" fill-opacity="0.501961" points="-16,104 5,185 30,98" />
<polygon fill="#e5ffff" fill-opacity="0.501961" points="83,-16 143,-16 110,6" />
<polygon fill="#c5d5dd" fill-opacity="0.501961" points="18,172 121,154 108,185" />
<polygon fill="#b6a9b3" fill-opacity="0.501961" points="271,117 253,135 241,83" />
<polygon fill="#7f7f78" fill-opacity="0.501961" points="167,78 214,88 192,62" />
<polygon fill="#233124" fill-opacity="0.501961" points="83,53 104,85 189,21" />
<polygon fill="#4b6455" fill-opacity="0.501961" points="99,51 2,10 101,-16" />
<polygon fill="#76899e" fill-opacity="0.501961" points="38,67 -16,95 17,102" />
<polygon fill="#1a2b3b" fill-opacity="0.501961" points="236,73 227,113 245,117" />
<polygon fill="#9b7674" fill-opacity="0.501961" points="130,57 145,112 117,69" />
<polygon fill="#bcc5cc" fill-opacity="0.501961" points="217,88 229,129 165,123" />
<polygon fill="#3a3f32" fill-opacity="0.501961" points="30,145 23,185 41,152" />
<polygon fill="#88af98" fill-opacity="0.501961" points="165,66 159,58 149,79" />
<polygon fill="#96a6ac" fill-opacity="0.501961" points="-1,125 104,185 100,128" />
<polygon fill="#1f2e10" fill-opacity="0.501961" points="271,49 271,-13 163,67" />
<polygon fill="#25374d" fill-opacity="0.501961" points="45,80 56,98 37,83" />
<polygon fill="#14212e" fill-opacity="0.501961" points="29,89 37,110 38,82" />
<polygon fill="#2d3f38" fill-opacity="0.501961" points="56,-16 14,67 62,73" />
<polygon fill="#c9978e" fill-opacity="0.501961" points="267,58 271,98 247,56" />
<polygon fill="#baa1a6" fill-opacity="0.501961" points="128,68 158,80 137,62" />
<polygon fill="#586c74" fill-opacity="0.501961" points="27,118 17,128 48,127" />
<polygon fill="#000d02" fill-opacity="0.501961" points="163,72 187,71 185,64" />
<polygon fill="#7b8078" fill-opacity="0.501961" points="254,128 271,156 162,136" />
<polygon fill="#ffffff" fill-opacity="0.501961" points="22,-10 19,7 -16,-16" />
<polygon fill="#d5deea" fill-opacity="0.501961" points="65,126 52,84 92,114" />
<polygon fill="#58555b" fill-opacity="0.501961" points="218,108 232,48 243,64" />
<polygon fill="#1e292d" fill-opacity="0.501961" points="156,82 143,95 139,76" />
<polygon fill="#8294a7" fill-opacity="0.501961" points="57,81 55,92 26,72" />
<polygon fill="#1a2a2b" fill-opacity="0.501961" points="-16,74 20,44 27,84" />
<polygon fill="#000300" fill-opacity="0.501961" points="199,70 221,80 222,57" />
<polygon fill="#535739" fill-opacity="0.501961" points="167,139 126,182 270,185" />
<polygon fill="#898584" fill-opacity="0.501961" points="164,104 191,77 169,75" />
<polygon fill="#929ba6" fill-opacity="0.501961" points="142,94 73,85 98,101" />
<polygon fill="#192a47" fill-opacity="0.501961" points="91,76 71,70 62,42" />
<polygon fill="#f5ffff" fill-opacity="0.501961" points="-14,-2 2,10 7,-16" />
<polygon fill="#3e4f43" fill-opacity="0.501961" points="24,-8 13,51 45,63" />
<polygon fill="#414e26" fill-opacity="0.501961" points="157,73 139,73 154,24" />
<polygon fill="#7a827e" fill-opacity="0.501961" points="76,144 32,165 79,161" />
<polygon fill="#8a9ca3" fill-opacity="0.501961" points="116,121 82,136 161,134" />
<polygon fill="#cddbe6" fill-opacity="0.501961" points="18,101 -7,114 44,118" />
<polygon fill="#bfc5cb" fill-opacity="0.501961" points="30,79 37,68 27,72" />
<polygon fill="#a7a9b0" fill-opacity="0.501961" points="74,95 78,66 71,72" />
<polygon fill="#131a28" fill-opacity="0.501961" points="186,89 200,75 191,105" />
<polygon fill="#1f2f31" fill-opacity="0.501961" points="84,36 54,75 23,66" />
<polygon fill="#51704b" fill-opacity="0.501961" points="142,-6 125,25 76,18" />
<polygon fill="#d0dfed" fill-opacity="0.501961" points="43,89 38,100 71,120" />
<polygon fill="#8e775c" fill-opacity="0.501961" points="232,82 200,83 203,92" />
<polygon fill="#58779c" fill-opacity="0.501961" points="115,114 136,115 129,97" />
<polygon fill="#e6fdff" fill-opacity="0.501961" points="31,-16 21,-16 33,10" />
<polygon fill="#96a3ab" fill-opacity="0.501961" points="248,128 234,110 205,120" />
<polygon fill="#3b4e2b" fill-opacity="0.501961" points="271,6 213,-16 193,28" />
<polygon fill="#416556" fill-opacity="0.501961" points="7,0 16,14 -16,34" />
<polygon fill="#bbcad8" fill-opacity="0.501961" points="26,146 21,177 -15,169" />
<polygon fill="#c7e0f7" fill-opacity="0.501961" points="142,69 143,62 134,62" />
<polygon fill="#0d2129" fill-opacity="0.501961" points="252,67 251,83 225,87" />
<polygon fill="#060e13" fill-opacity="0.501961" points="159,15 209,-16 150,-16" />
<polygon fill="#334052" fill-opacity="0.501961" points="71,94 71,83 62,87" />
<polygon fill="#b5c3d2" fill-opacity="0.501961" points="231,119 271,121 257,128" />
<polygon fill="#141933" fill-opacity="0.501961" points="157,90 165,72 166,99" />
<polygon fill="#cdd3e0" fill-opacity="0.501961" points="200,111 200,89 225,115" />
<polygon fill="#efaca4" fill-opacity="0.501961" points="98,82 76,77 87,76" />
<polygon fill="#f5cac1" fill-opacity="0.501961" points="115,79 123,82 131,76" />
<polygon fill="#bcccdb" fill-opacity="0.501961" points="156,133 145,107 116,118" />
<polygon fill="#b27c72" fill-opacity="0.501961" points="231,61 223,62 237,70" />
<polygon fill="#75d986" fill-opacity="0.501961" points="196,67 190,62 184,69" />
<polygon fill="#b7d7e5" fill-opacity="0.501961" points="106,6 111,-4 100,5" />
<polygon fill="#2d313e" fill-opacity="0.501961" points="84,75 109,62 118,87" />
<polygon fill="#333f4a" fill-opacity="0.501961" points="51,86 56,102 47,88" />
<polygon fill="#767167" fill-opacity="0.501961" points="115,185 152,158 125,137" />
<polygon fill="#535f69" fill-opacity="0.501961" points="11,92 41,78 -8,76" />
<polygon fill="#d8e3ed" fill-opacity="0.501961" points="113,91 94,127 122,106" />
<polygon fill="#e2f6ff" fill-opacity="0.501961" points="87,66 92,70 83,69" />
<polygon fill="#8a999d" fill-opacity="0.501961" points="176,128 148,152 98,130" />
<polygon fill="#abbbc6" fill-opacity="0.501961" points="125,144 -1,146 93,118" />
<polygon fill="#b3aeac" fill-opacity="0.501961" points="225,89 200,91 192,111" />
<polygon fill="#c2cedb" fill-opacity="0.501961" points="150,128 186,95 187,112" />
<polygon fill="#c2ced9" fill-opacity="0.501961" points="50,163 108,163 69,174" />
<polygon fill="#4b5f50" fill-opacity="0.501961" points="116,37 21,24 42,-3" />
</g>
</svg>