<svg width="300" height="300" xmlns="http://www.w3.org/2000/svg">
    <style>
        path { fill: none; }
        path.one { stroke: rgb(72, 128, 159); stroke-width: 12; }
        path.two { stroke: #5E9E3C; stroke-width: 9; }
        path.three { stroke: rgb(72, 128, 159); stroke-width: 8; }
    </style>
    <path d="M 285.9792865412692 152.37352727547056 A 136 136 0 0 0 147.62647272452944 14.020713458730796" class="one"></path>
    <path d="M 196.51473949229097 277.7981964268835 A 136 136 0 0 0 283.9338544096603 173.61615216270252" class="one"></path>
    <path d="M 62.580885082630644 254.182044264181 A 136 136 0 0 0 82.00000000000003 267.7794549146837" class="one"></path>
    <path d="M 32.220545085316346 81.99999999999999 A 136 136 0 0 0 45.817955735819 237.41911491736937" class="one"></path>
    <path d="M 126.38384783729748 16.066145590339715 A 136 136 0 0 0 81.99999999999994 32.22054508531636" class="one"></path>
    <path d="M 76.46089475659906 223.53910524340097 A 104 104 0 0 0 219.58958306132126 227.287061849649" class="two"></path>
    <path d="M 70.33137791562628 83.15008859259991 A 104 104 0 0 0 52.27196743826552 114.42990509413046" class="two"></path>
    <path d="M 168.05941047736076 47.57999368673036 A 104 104 0 0 0 76.46089475659905 76.46089475659906" class="two"></path>
    <path d="M 185.57009490586955 52.271967438265534 A 104 104 0 0 0 176.91718069066215 49.543714065936896" class="two"></path>
    <path d="M 198.1774036578378 203.50642743437237 A 72 72 0 0 0 137.497331207981 79.09384178312102" class="three"></path>
    <path d="M 119.57148515466965 215.2541606666388 A 72 72 0 0 0 143.7247865221686 221.7260182626057" class="three"></path>
    <path d="M 82.34213130341459 125.37454968055187 A 72 72 0 0 0 108.7024965827247 208.9789471888074" class="three"></path>
</svg>